<svg width="629" height="629" viewBox="0 0 629 629" fill="none" xmlns="http://www.w3.org/2000/svg">
<path d="M505.527 219.269C496.973 287.516 437.218 355.574 371.487 399.478C201.594 513.704 37.4884 319.846 78.8766 250.216C110.012 179.579 206.941 198.953 248.203 171.214C480.053 14.0896 513.578 162.219 505.527 219.269Z" fill="#1E83B4"/>
<path opacity="0.9" d="M505.527 219.269C496.973 287.516 437.218 355.574 371.487 399.478C201.594 513.704 37.4884 319.846 78.8766 250.216C110.012 179.579 206.941 198.953 248.203 171.214C480.053 14.0896 513.578 162.219 505.527 219.269Z" fill="white"/>
<path d="M314.437 454.201H135.801L126.052 166.937H304.688L314.437 454.201Z" fill="#1E83B4"/>
<path d="M323.369 445.269H144.733L134.92 158.005H313.556L323.369 445.269Z" fill="#1E83B4"/>
<path opacity="0.3" d="M323.369 445.269H144.733L134.92 158.005H313.556L323.369 445.269Z" fill="white"/>
<path d="M277.326 240.404C278.269 268.143 256.506 290.661 228.767 290.661C201.028 290.661 177.755 268.143 176.812 240.404C175.868 212.665 197.632 190.147 225.371 190.147C253.109 190.147 276.382 212.665 277.326 240.404Z" fill="#1E83B4"/>
<path d="M268.52 240.404C268.772 247.574 267.199 254.305 264.18 260.154C257.638 273.049 244.241 281.855 228.453 281.855C212.728 281.855 198.701 273.049 191.279 260.154C187.882 254.305 185.869 247.574 185.618 240.404C184.8 217.508 202.727 198.89 225.685 198.89C248.581 198.89 267.765 217.508 268.52 240.404Z" fill="white"/>
<path opacity="0.6" d="M264.18 260.154C257.638 273.049 244.241 281.855 228.453 281.855C212.728 281.855 198.701 273.049 191.279 260.154C201.469 253.172 213.86 249.084 227.383 249.084C240.844 249.084 253.55 253.172 264.18 260.154Z" fill="#1E83B4"/>
<path opacity="0.6" d="M245.058 226.188C245.436 236.378 237.447 244.681 227.195 244.681C217.005 244.681 208.45 236.378 208.136 226.188C207.758 215.998 215.747 207.759 225.937 207.759C236.189 207.759 244.744 215.998 245.058 226.188Z" fill="#1E83B4"/>
<path d="M287.453 341.232H173.541L172.786 318.589H286.698L287.453 341.232Z" fill="white"/>
<path d="M288.837 381.74H174.925L174.107 359.096H288.082L288.837 381.74Z" fill="white"/>
<path fill-rule="evenodd" clip-rule="evenodd" d="M247.323 363.876L250.908 382.306C251.16 383.375 250.405 384.445 249.273 384.571L221.785 388.345C220.653 388.47 219.584 387.716 219.395 386.583L215.747 368.217C215.558 367.084 216.313 366.078 217.445 365.952L244.87 362.178C246.002 362.052 247.134 362.807 247.323 363.876ZM235.183 375.073C236.001 374.318 236.378 373.249 236.189 372.116C235.812 370.355 234.051 369.097 232.164 369.349C230.34 369.6 229.145 371.236 229.459 373.06C229.711 374.192 230.466 375.073 231.535 375.576L232.038 381.488L237.007 380.859L235.183 375.073Z" fill="#1E83B4"/>
<path d="M242.165 361.172C241.159 361.361 240.215 360.669 240.026 359.662L239.649 357.901C238.705 352.932 233.925 349.158 228.83 349.598C223.295 350.101 219.647 354.945 220.653 360.165L221.093 362.241C221.282 363.248 220.59 364.128 219.584 364.254C218.577 364.38 217.634 363.751 217.445 362.744L217.131 360.983C215.747 354.064 220.087 347.46 227.132 346.202C234.554 344.944 241.85 349.913 243.234 357.146L243.612 359.159C243.8 360.165 243.171 361.046 242.165 361.172Z" fill="#1E83B4"/>
<path d="M270.03 413.442H195.871L195.367 398.66H269.527L270.03 413.442Z" fill="#1E83B4"/>
<path d="M234.239 329.91C234.365 332.238 232.541 334.062 230.277 334.062C227.949 334.062 226.062 332.238 226 329.91C225.874 327.646 227.698 325.759 229.962 325.759C232.29 325.759 234.177 327.646 234.239 329.91Z" fill="#263238"/>
<path d="M216.439 329.91C216.502 332.238 214.74 334.062 212.413 334.062C210.149 334.062 208.199 332.238 208.136 329.91C208.073 327.646 209.834 325.759 212.162 325.759C214.426 325.759 216.376 327.646 216.439 329.91Z" fill="#263238"/>
<path d="M198.575 329.91C198.701 332.238 196.877 334.062 194.613 334.062C192.285 334.062 190.398 332.238 190.335 329.91C190.272 327.646 192.034 325.759 194.298 325.759C196.625 325.759 198.512 327.646 198.575 329.91Z" fill="#263238"/>
<path d="M252.103 329.91C252.166 332.238 250.405 334.062 248.077 334.062C245.813 334.062 243.863 332.238 243.8 329.91C243.737 327.646 245.499 325.759 247.826 325.759C250.09 325.759 252.04 327.646 252.103 329.91Z" fill="#263238"/>
<path d="M269.904 329.91C270.03 332.238 268.205 334.062 265.941 334.062C263.614 334.062 261.727 332.238 261.664 329.91C261.538 327.646 263.362 325.759 265.627 325.759C267.954 325.759 269.841 327.646 269.904 329.91Z" fill="#263238"/>
<path d="M420.046 219.269C421.744 221.911 423.128 224.49 424.575 227.195C426.022 229.837 427.28 232.541 428.538 235.309C431.054 240.844 433.318 246.505 434.954 252.606C435.205 253.298 435.394 254.116 435.583 254.871L435.834 256.066L435.96 256.632L436.149 257.576C436.463 260.154 436.149 262.23 435.771 264.054C434.828 267.765 433.381 270.659 431.809 273.426C428.664 278.962 424.952 283.679 420.675 288.145L415.329 284.119C417.97 279.15 420.549 273.992 422.436 268.96C423.38 266.507 424.135 263.991 424.386 261.916C424.449 260.909 424.386 260.029 424.261 259.651L423.757 258.142C423.569 257.513 423.38 256.884 423.128 256.255C421.304 251.16 418.977 246.065 416.524 241.033C414.008 236.064 411.303 230.906 408.598 226.188L420.046 219.269Z" fill="#FF8B7B"/>
<path d="M416.713 282.358L410.926 285.377L417.53 293.177C417.53 293.177 421.682 290.346 421.87 286.069L416.713 282.358Z" fill="#FF8B7B"/>
<path d="M403.126 290.158L410.234 295.819L417.53 293.177L410.926 285.377L403.126 290.158Z" fill="#FF8B7B"/>
<path d="M378.847 178.07C378.721 178.762 378.218 179.265 377.777 179.202C377.274 179.076 377.023 178.447 377.211 177.755C377.337 177.064 377.84 176.56 378.281 176.623C378.721 176.749 378.973 177.378 378.847 178.07Z" fill="#263238"/>
<path d="M378.281 179.265C378.281 179.265 375.891 182.976 373.752 184.612C374.758 185.995 376.96 185.932 376.96 185.932L378.281 179.265Z" fill="#FF5652"/>
<path d="M376.016 203.985L376.079 195.745L386.961 197.066C386.961 197.066 386.835 204.11 380.734 206.249L376.016 203.985Z" fill="#FF8B7B"/>
<path d="M379.161 189.769L386.835 191.971L386.961 197.066L376.079 195.745L379.161 189.769Z" fill="#FF8B7B"/>
<path opacity="0.2" d="M386.835 191.971L379.161 189.769L377.652 192.663C377.841 197.506 380.797 201.532 384.76 203.293C386.898 200.525 386.961 197.066 386.961 197.066L386.835 191.971Z" fill="black"/>
<path d="M382.181 174.736C382.306 174.736 382.411 174.694 382.495 174.61C382.684 174.485 382.684 174.17 382.495 174.044C380.923 172.346 379.036 172.598 378.91 172.661C378.721 172.661 378.532 172.912 378.595 173.101C378.658 173.352 378.847 173.478 379.099 173.478C379.161 173.478 380.608 173.227 381.866 174.61C381.95 174.694 382.055 174.736 382.181 174.736Z" fill="#263238"/>
<path d="M398.283 190.839C397.025 197.317 396.207 206.249 400.736 210.589C400.736 210.589 398.975 217.131 386.961 217.131C373.752 217.131 380.608 211.407 380.608 211.407C386.08 209.646 386.08 203.419 384.822 198.387L398.283 190.839Z" fill="#FF8B7B"/>
<path d="M403.252 214.929C404.447 213.231 404.384 207.947 403.126 207.067C401.113 205.557 392.37 205.18 380.671 207.884C381.992 212.979 379.287 215.684 379.287 215.684L403.252 214.929Z" fill="#1E83B4"/>
<path fill-rule="evenodd" clip-rule="evenodd" d="M442.565 513.578C441.684 513.767 440.803 513.83 440.363 513.453C440.174 513.264 439.986 513.012 440.174 512.446C440.258 512.195 440.426 512.006 440.678 511.88C441.873 511.251 444.64 512.383 444.766 512.446C444.829 512.509 444.892 512.572 444.892 512.635C444.892 512.698 444.829 512.824 444.766 512.824C444.326 513.012 443.445 513.39 442.565 513.578ZM441.118 512.132C441.034 512.174 440.95 512.216 440.866 512.258C440.699 512.3 440.594 512.404 440.552 512.572C440.426 512.949 440.552 513.075 440.615 513.138C441.118 513.516 442.879 513.138 444.137 512.635C443.256 512.383 441.936 512.006 441.118 512.132Z" fill="#1E83B4"/>
<path fill-rule="evenodd" clip-rule="evenodd" d="M444.703 512.824C444.661 512.866 444.64 512.866 444.64 512.824C443.634 512.572 441.495 511 441.432 510.056C441.432 509.867 441.495 509.49 441.998 509.364C442.292 509.238 442.586 509.259 442.879 509.427C444.074 510.056 444.829 512.446 444.892 512.572C444.892 512.656 444.871 512.719 444.829 512.761C444.787 512.803 444.745 512.824 444.703 512.824ZM442.187 509.742C442.187 509.742 442.166 509.742 442.124 509.742C441.873 509.805 441.873 509.93 441.873 509.993C441.873 510.622 443.319 511.817 444.326 512.258C444.074 511.566 443.508 510.182 442.69 509.804C442.523 509.721 442.355 509.7 442.187 509.742Z" fill="#1E83B4"/>
<path fill-rule="evenodd" clip-rule="evenodd" d="M377.211 515.025C376.079 515.025 375.01 514.899 374.633 514.396C374.507 514.207 374.381 513.893 374.633 513.453C374.8 513.201 375.031 513.033 375.324 512.949C376.771 512.572 379.853 514.333 379.979 514.396C380.105 514.459 380.105 514.522 380.105 514.648C380.105 514.711 380.042 514.774 379.916 514.774C379.35 514.899 378.281 515.025 377.211 515.025ZM375.828 513.327C375.66 513.327 375.534 513.348 375.45 513.39C375.241 513.432 375.094 513.516 375.01 513.641C374.884 513.956 374.947 514.082 374.947 514.145C375.387 514.711 377.589 514.711 379.287 514.459C378.469 514.082 376.834 513.327 375.828 513.327Z" fill="#1E83B4"/>
<path fill-rule="evenodd" clip-rule="evenodd" d="M379.916 514.774C379.874 514.774 379.832 514.774 379.79 514.774C378.721 514.333 376.645 512.383 376.771 511.377C376.834 511.125 377.023 510.874 377.589 510.811C378.008 510.769 378.386 510.895 378.721 511.188C379.853 512.069 380.105 514.459 380.105 514.585C380.105 514.669 380.084 514.732 380.042 514.774C380 514.774 379.958 514.774 379.916 514.774ZM377.715 511.188C377.673 511.188 377.631 511.209 377.589 511.251C377.211 511.251 377.211 511.377 377.211 511.44C377.086 512.069 378.532 513.578 379.664 514.207C379.539 513.516 379.224 512.069 378.469 511.503C378.26 511.293 378.008 511.188 377.715 511.188Z" fill="#1E83B4"/>
<path d="M389.603 514.585H380.797L379.916 494.079H388.722L389.603 514.585Z" fill="#FF8B7B"/>
<path d="M454.578 510.496L445.898 512.383L437.218 493.262L445.898 491.438L454.578 510.496Z" fill="#FF8B7B"/>
<path d="M445.08 511.503L454.83 509.427C455.144 509.301 455.522 509.49 455.648 509.804L459.044 517.164C459.422 517.919 458.918 518.799 458.101 518.988C454.704 519.617 453.006 519.806 448.729 520.686C446.15 521.315 440.174 522.762 436.526 523.517C433.004 524.271 431.683 520.812 433.067 520.183C439.419 517.29 442.061 514.711 443.822 512.32C444.137 511.88 444.577 511.629 445.08 511.503Z" fill="#263238"/>
<path d="M380.86 513.578H390.483C390.861 513.578 391.175 513.83 391.238 514.145L392.999 522.007C393.188 522.825 392.559 523.642 391.741 523.642C388.219 523.58 383.187 523.328 378.847 523.328C373.689 523.328 369.286 523.642 363.248 523.642C359.662 523.642 358.656 519.931 360.165 519.617C367.084 518.107 372.745 517.919 378.721 514.27C379.35 513.83 380.105 513.578 380.86 513.578Z" fill="#263238"/>
<path d="M416.587 212.602C424.89 214.489 431.746 235.623 431.746 235.623L415.077 248.329C415.077 248.329 408.976 242.605 406.271 231.975C403.378 220.905 408.158 210.652 416.587 212.602Z" fill="#1E83B4"/>
<path opacity="0.4" d="M416.587 212.602C424.89 214.489 431.746 235.623 431.746 235.623L415.077 248.329C415.077 248.329 408.976 242.605 406.271 231.975C403.378 220.905 408.158 210.652 416.587 212.602Z" fill="black"/>
<path d="M372.997 237.825C370.921 240.089 368.846 242.039 366.707 244.115C365.659 245.121 364.589 246.107 363.499 247.071L361.801 248.581L361.361 248.958C361.172 249.084 360.92 249.336 360.669 249.524C360.103 249.902 359.537 250.405 358.216 250.971C357.587 251.223 356.706 251.537 355.196 251.6C354.442 251.6 353.498 251.474 352.555 251.097C351.548 250.782 350.668 250.153 350.039 249.524C348.718 248.203 348.277 247.008 348.026 246.254C347.774 245.436 347.711 244.87 347.711 244.367C347.586 243.423 347.648 242.731 347.711 242.165C347.774 241.536 347.837 241.033 347.963 240.53C348.34 238.58 348.844 237.007 349.41 235.435C349.976 233.862 350.605 232.416 351.359 230.906C352.177 229.271 352.932 228.138 353.687 226.817C356.832 221.597 360.48 216.879 364.317 212.35C368.28 207.947 372.431 203.859 377.211 200.148L381.866 204.928C378.595 209.268 375.387 213.923 372.431 218.515C369.475 223.169 366.77 227.887 364.38 232.667C363.877 233.862 363.185 235.183 362.807 236.127C362.367 237.259 361.99 238.391 361.612 239.523C361.298 240.655 361.046 241.851 360.92 242.731C360.92 242.92 360.857 243.109 360.857 243.234C360.857 243.297 360.92 243.36 360.857 243.109C360.857 242.983 360.857 242.731 360.732 242.291C360.543 241.851 360.354 241.033 359.285 239.964C358.782 239.46 357.964 238.894 357.209 238.643C356.454 238.328 355.637 238.265 355.071 238.265C353.938 238.265 353.372 238.517 353.058 238.643C352.429 238.894 352.429 238.957 352.429 238.957L352.932 238.517L354.442 237.133L357.461 234.303C359.411 232.416 361.423 230.403 363.31 228.579L372.997 237.825Z" fill="#FF8B7B"/>
<path opacity="0.2" d="M409.479 228.138C414.008 232.604 415.454 240.718 415.832 247.763L415.077 248.329C415.077 248.329 408.976 242.605 406.271 231.975C406.103 231.304 405.957 230.654 405.831 230.025L409.479 228.138Z" fill="black"/>
<path d="M364.191 221.471C362.367 231.032 361.235 250.656 366.518 289.529H413.819C414.197 282.232 409.605 246.82 416.587 212.602C416.587 212.602 408.473 210.967 400.736 210.589C394.698 210.275 385.955 210.086 380.671 210.589C378.407 210.778 376.268 211.092 374.318 211.47C369.16 212.35 365.198 216.376 364.191 221.471Z" fill="#1E83B4"/>
<path opacity="0.4" d="M364.191 221.471C362.367 231.032 361.235 250.656 366.518 289.529H413.819C414.197 282.232 409.605 246.82 416.587 212.602C416.587 212.602 408.473 210.967 400.736 210.589C394.698 210.275 385.955 210.086 380.671 210.589C378.407 210.778 376.268 211.092 374.318 211.47C369.16 212.35 365.198 216.376 364.191 221.471Z" fill="black"/>
<path opacity="0.2" d="M371.425 235.561L362.87 233.548C362.619 238.706 362.619 245.121 362.996 253.047C366.896 248.581 371.928 241.599 371.425 235.561Z" fill="black"/>
<path opacity="0.2" d="M379.916 494.079L380.356 504.647H389.225L388.785 494.079H379.916Z" fill="black"/>
<path opacity="0.2" d="M445.898 491.438L437.218 493.262L441.747 503.137L450.364 501.25L445.898 491.438Z" fill="black"/>
<path d="M402.497 181.341C400.233 189.832 399.289 194.927 394.069 198.449C386.206 203.733 376.394 197.632 376.079 188.637C375.828 180.586 379.602 168.069 388.659 166.37C397.654 164.672 404.762 172.849 402.497 181.341Z" fill="#FF8B7B"/>
<path d="M382.621 181.655C382.181 180.523 380.231 171.78 382.055 169.516C383.942 167.188 404.888 168.824 407.97 171.906C413.127 176.938 409.542 181.467 403.881 187.316C399.667 191.656 399.541 196.625 397.402 197.317C393.628 198.575 387.842 197.38 386.709 193.418C385.514 189.455 382.621 181.655 382.621 181.655Z" fill="#263238"/>
<path d="M405.391 161.905C398.031 158.76 384.13 162.282 376.645 160.458C376.394 164.358 378.721 170.585 386.206 172.22C386.206 172.22 396.836 174.296 405.076 173.981C413.316 173.667 411.681 164.609 405.391 161.905Z" fill="#263238"/>
<path d="M406.586 172.157C406.586 172.157 411.177 172.661 414.385 170.648C415.769 174.044 408.158 174.925 406.586 172.157Z" fill="#263238"/>
<path d="M386.646 182.033C386.521 184.297 385.451 186.498 384.193 187.882C382.243 190.021 380.231 188.7 379.853 186.121C379.602 183.794 380.231 179.831 382.558 178.699C384.885 177.504 386.835 179.391 386.646 182.033Z" fill="#FF8B7B"/>
<path d="M383.313 289.529C383.313 289.529 393.314 357.146 398.849 382.495C404.887 410.234 437.281 502.005 437.281 502.005L453.132 498.545C453.132 498.545 430.488 423.757 425.393 385.011C421.493 355.196 413.819 289.529 413.819 289.529H383.313Z" fill="#1E83B4"/>
<path d="M433.444 496.721C433.381 496.721 436.4 502.445 436.4 502.445L454.264 498.608L452.754 493.199L433.444 496.721Z" fill="#263238"/>
<path opacity="0.3" d="M389.666 313.619C401.239 315.884 400.044 359.159 398.66 381.489C395.264 365.701 390.358 335.446 387.024 313.934C387.779 313.557 388.659 313.431 389.666 313.619Z" fill="black"/>
<path d="M366.518 289.529C366.518 289.529 365.323 355.7 366.267 382.684C367.273 410.737 377.086 502.634 377.086 502.634H392.056C392.056 502.634 392.622 412.372 393.251 384.822C394.006 354.756 397.591 289.529 397.591 289.529H366.518Z" fill="#1E83B4"/>
<path d="M374.192 496.658C374.129 496.658 375.01 502.886 375.01 502.886H393.251L393.754 497.35L374.192 496.658Z" fill="#263238"/>
<path d="M382.747 224.364C386.961 235.812 362.053 249.273 362.053 249.273L351.297 235.372C351.297 235.372 358.467 221.031 367.336 214.615C378.218 206.627 379.539 215.621 382.747 224.364Z" fill="#1E83B4"/>
<path opacity="0.4" d="M382.747 224.364C386.961 235.812 362.053 249.273 362.053 249.273L351.297 235.372C351.297 235.372 358.467 221.031 367.336 214.615C378.218 206.627 379.539 215.621 382.747 224.364Z" fill="black"/>
<path d="M525.781 108.628C525.781 124.605 505.464 137.562 480.367 137.562C455.333 137.562 435.016 124.605 435.016 108.628C435.016 92.6517 455.333 79.6943 480.367 79.6943C505.464 79.6943 525.781 92.6517 525.781 108.628Z" fill="#1E83B4"/>
<path fill-rule="evenodd" clip-rule="evenodd" d="M464.013 123.158C461.497 123.158 459.044 122.403 456.905 120.957C454.012 119.007 452.125 116.05 451.496 112.591C450.364 106.049 454.767 99.5078 461.245 98.0611C466.529 96.866 471.938 99.1304 474.832 103.722L503.955 97.7466C506.345 97.2434 508.735 98.6272 509.301 100.892C509.616 102.024 509.427 103.282 508.798 104.288C508.169 105.358 507.162 106.049 505.967 106.301L505.213 106.427C504.961 106.49 504.772 106.616 504.646 106.804C504.584 107.056 504.521 107.244 504.646 107.496L505.15 108.817C505.464 109.698 505.15 110.767 504.332 111.27C503.766 111.647 503.326 112.276 503.263 113.031C503.137 113.912 502.508 114.604 501.69 114.792L501.124 114.918C500.306 115.044 499.489 114.667 499.048 113.912C498.482 112.968 497.476 112.528 496.407 112.717C495.4 112.968 494.645 113.786 494.52 114.855C494.394 115.736 493.765 116.428 493.01 116.554L492.381 116.679C491.563 116.868 490.746 116.491 490.305 115.673C489.928 115.044 489.299 114.604 488.544 114.478C487.601 114.352 486.909 113.534 486.909 112.591L486.846 111.144C486.846 110.956 486.72 110.704 486.531 110.578C486.364 110.452 486.154 110.41 485.902 110.452L476.593 112.339C475.838 117.623 471.876 121.837 466.592 122.907C465.753 123.074 464.894 123.158 464.013 123.158ZM461.497 99.3191C455.647 100.64 451.748 106.49 452.754 112.402C453.32 115.484 455.018 118.126 457.597 119.887C460.176 121.712 463.258 122.278 466.34 121.649C471.247 120.642 474.832 116.679 475.398 111.773L475.461 111.27L485.651 109.194C486.217 109.069 486.846 109.194 487.286 109.572C487.789 109.949 488.041 110.515 488.104 111.081L488.167 112.528C488.167 112.905 488.418 113.22 488.733 113.283C489.865 113.409 490.808 114.101 491.375 115.044C491.563 115.296 491.815 115.547 492.129 115.484L492.695 115.359C493.073 115.296 493.199 114.981 493.262 114.667C493.45 113.094 494.645 111.836 496.155 111.522C497.727 111.144 499.3 111.899 500.118 113.283C500.243 113.472 500.495 113.723 500.872 113.66L501.439 113.534C501.816 113.472 501.942 113.157 502.005 112.905C502.13 111.773 502.759 110.767 503.703 110.201C503.955 110.012 504.08 109.635 503.955 109.257L503.451 107.936C503.263 107.37 503.263 106.741 503.577 106.238C503.829 105.735 504.332 105.358 504.961 105.232L505.716 105.043C506.533 104.854 507.288 104.351 507.729 103.659C508.169 102.904 508.295 102.024 508.106 101.206C507.666 99.6336 505.967 98.6272 504.206 98.9417L474.203 105.169L473.951 104.791C471.435 100.388 466.466 98.1869 461.497 99.3191ZM464.013 118.504C462.441 118.504 460.931 118.063 459.61 117.183C457.786 115.988 456.591 114.226 456.151 112.088C455.71 109.949 456.151 107.811 457.283 106.049C458.478 104.225 460.302 103.03 462.441 102.59C464.516 102.15 466.655 102.527 468.479 103.722C470.24 104.917 471.498 106.741 471.938 108.817C472.379 110.956 471.938 113.094 470.743 114.918C469.611 116.679 467.787 117.937 465.648 118.378C465.103 118.462 464.558 118.504 464.013 118.504ZM464.076 103.659C463.615 103.659 463.153 103.701 462.692 103.785C460.868 104.162 459.358 105.232 458.352 106.741C457.346 108.251 457.031 110.075 457.409 111.836C457.723 113.597 458.792 115.17 460.302 116.113C461.812 117.12 463.636 117.497 465.397 117.12C467.221 116.742 468.731 115.736 469.737 114.226C470.743 112.654 471.058 110.893 470.68 109.069C470.303 107.307 469.297 105.798 467.787 104.791C466.655 104.037 465.397 103.659 464.076 103.659Z" fill="white"/>
<path opacity="0.6" d="M458.352 144.984C458.352 150.268 451.685 154.482 443.445 154.482C435.205 154.482 428.538 150.268 428.538 144.984C428.538 139.764 435.205 135.487 443.445 135.487C451.685 135.487 458.352 139.764 458.352 144.984Z" fill="#1E83B4"/>
<path opacity="0.3" d="M425.833 154.482C425.833 156.684 423.065 158.382 419.732 158.382C416.335 158.382 413.567 156.684 413.567 154.482C413.567 152.344 416.335 150.583 419.732 150.583C423.065 150.583 425.833 152.344 425.833 154.482Z" fill="#1E83B4"/>
</svg>
